<svg xmlns="http://www.w3.org/2000/svg" width="192" height="192" viewBox="0 0 512 512">
  <rect width="512" height="512" fill="#001e26" rx="112"/>
  <svg x="84" y="84" width="344" height="344" viewBox="0.00 0.00 81.80 62.10" preserveAspectRatio="xMidYMid meet">
    <path d="M16.7135 0.153991C7.28463 1.93909 2.20576 6.94904 2.17929 14.4919C2.17287 16.3589 2.4239 18.2129 2.86132 19.531C3.76942 22.2667 6.99995 25.922 9.74656 27.3216C10.8755 27.8969 11.7987 28.4183 11.7987 28.4809C11.7987 28.5435 10.66 29.1496 9.26832 29.8281C4.57885 32.1137 1.8311 35.1929 0.625462 39.5137C-1.15936 45.9082 0.964585 53.0683 5.86274 57.1702C6.87973 58.0216 7.44379 58.2618 7.79653 57.9928C13.3695 53.7409 17.9902 51.6762 25.976 49.8683C29.3944 49.0945 31.0238 49.0035 42.9887 48.9177C55.673 48.8271 56.3895 48.7818 60.2926 47.8221C66.8565 46.2087 70.4363 43.7435 71.479 40.1197C72.0159 38.2531 72.0347 34.0733 71.5149 32.1244C71.2998 31.3179 70.5354 29.5729 69.8159 28.247C67.8258 24.5795 68.0254 24.4405 71.8707 26.8175C76.3723 29.5997 79.5083 33.5921 80.0708 37.2564C80.2103 38.1645 80.4958 38.9076 80.7056 38.9076C80.9479 38.9076 81.0194 37.5785 80.9018 35.2649C80.7468 32.2079 80.5298 31.2368 79.5525 29.2248C78.0663 26.1646 74.9099 23.1158 72.0038 21.9336C65.0334 19.0978 56.3044 22.8586 53.7158 29.8124C53.2243 31.1328 52.6697 32.213 52.4837 32.213C51.9374 32.213 52.4992 28.2639 53.3861 25.8716C54.5233 22.8039 57.1365 19.4763 59.5281 18.0511C62.494 16.2837 66.5771 15.4406 69.5804 15.9754C74.592 16.8677 78.6263 19.9677 80.6228 24.461C81.8855 27.3023 82.0398 26.6033 81.1453 22.0923C80.2954 17.8073 79.292 15.2606 77.1201 11.8779C73.922 6.89784 69.1037 3.36466 63.0259 1.54293C58.2658 0.116186 54.2338 -0.21067 45.4461 0.116579C36.0857 0.465487 36.5016 0.464307 25.7869 0.185889C21.3164 0.0701116 17.2333 0.0555405 16.7135 0.153991ZM17.2651 9.52647C21.0529 15.055 22.3579 19.0328 22.6539 25.9504C22.9091 31.9101 22.4339 35.7277 20.6336 42.1817C19.913 44.7638 19.4087 46.966 19.513 47.0747C19.6174 47.183 20.119 47.1633 20.6279 47.0302C21.7715 46.7313 22.1243 45.744 23.3904 39.3014C25.5839 28.1371 24.6883 19.7811 20.5621 12.9167C18.7743 9.94232 17.1641 7.86541 16.2522 7.35702C15.7381 7.07033 16.0704 7.78272 17.2651 9.52647ZM20.3001 9.61547C27.5298 17.0268 29.0651 26.6639 24.9635 38.8895C24.3424 40.7404 23.7371 42.5904 23.618 43.0004C23.4656 43.5261 24.3953 43.0323 26.7684 41.3271C29.4545 39.3971 30.631 38.8056 32.592 38.4C35.0067 37.901 35.0517 37.8684 35.1814 36.5294C35.4789 33.4503 33.2967 24.726 31.1724 20.5009C29.3864 16.9496 26.9056 13.7752 23.7378 10.989C22.0577 9.5115 20.3115 8.10012 19.8574 7.85281C18.0813 6.88642 18.2352 7.49839 20.3001 9.61547ZM22.1144 8.30371C28.5173 13.6035 30.4726 15.8576 32.6748 20.4769C34.6147 24.5468 35.6048 27.9261 36.0554 32.0161C36.6585 37.4872 36.5632 37.2509 38.3612 37.7416C39.2429 37.9818 40.5986 38.6087 41.374 39.134C43.208 40.3765 43.6261 40.3493 43.338 39.0061C41.3993 29.9628 37.5136 21.4567 32.9981 16.3707C29.7169 12.6749 22.9666 7.38025 21.5837 7.41766C21.2899 7.42554 21.522 7.81343 22.1144 8.30371ZM49.1727 21.6642C48.2574 22.5928 47.1825 24.0613 46.7848 24.9277C45.8994 26.8549 45.535 30.7988 46.2026 31.2289C46.8502 31.6459 47.1428 30.9973 47.6748 27.9631C48.0052 26.0799 48.5806 24.6114 49.6793 22.8484C50.5269 21.4882 51.1344 20.2855 51.0289 20.1757C50.9235 20.0658 50.0879 20.7356 49.1727 21.6642ZM59.4344 26.3323C58.0843 26.9215 56.4586 28.627 55.6114 30.3424C54.7256 32.1362 55.1286 32.2398 56.6227 30.6027C58.1962 28.8787 59.4979 28.275 61.6411 28.275C63.1242 28.275 63.8788 28.538 65.3143 29.5548C67.5343 31.1277 68.5041 32.9423 68.5199 35.554C68.5309 37.3765 68.5747 37.4702 69.087 36.7649C69.9274 35.6072 69.7974 32.0082 68.8401 29.9486C67.6931 27.4807 65.6391 26.1701 62.6982 26.0303C61.423 25.9697 59.9542 26.1055 59.4344 26.3323ZM33.7451 43.4832C31.9879 43.79 29.3509 44.4063 27.8852 44.8532C23.6675 46.139 12.8913 51.9031 14.7045 51.9031C14.898 51.9031 16.4847 51.36 18.2303 50.6965C24.0017 48.5026 26.951 47.9485 34.2317 47.6902L40.9748 47.4507L43.0216 45.5026C44.1471 44.4311 45.068 43.3946 45.068 43.2C45.068 42.6605 37.3541 42.8535 33.7451 43.4832ZM19.2949 54.855C14.9075 55.6241 8.77419 57.994 8.77419 58.9202C8.77419 59.3932 12.0206 60.5013 15.3903 61.1787C19.2423 61.9525 27.7268 62.3479 31.6469 61.9359L34.6714 61.6178L29.0004 60.8971C19.8495 59.7342 16.3441 59.4062 12.9431 59.3955C10.0596 59.3865 9.81688 59.3294 10.5102 58.8233C11.5613 58.0566 15.4833 56.8102 19.3599 56.0116C23.6762 55.1216 35.0283 55.4339 41.0984 56.609C43.3857 57.0516 47.1137 57.6797 49.3832 58.0046C51.6524 58.3295 53.5926 58.6824 53.6946 58.7887C54.0549 59.1636 50.5193 60.5187 48.0925 60.9357C41.3112 62.1013 41.3063 62.1147 47.7145 61.9509C55.5842 61.7497 60.2918 60.8892 65.1752 58.7591C67.5608 57.7187 70.7762 55.7887 70.7762 55.3977C70.7762 55.2586 69.7634 55.5713 68.5256 56.0919C63.8592 58.0554 54.45 58.1047 44.1229 56.2199C33.254 54.2359 25.3151 53.7996 19.2949 54.855Z" fill-rule="evenodd" clip-rule="evenodd" fill="#ffffff"/>
  </svg>
</svg>