<svg xmlns="http://www.w3.org/2000/svg" width="512" height="512" viewBox="0 0 512 512">
  <rect width="512" height="512" fill="#001e26"/>
  <g transform="translate(46 40) scale(0.60)">
    <path fill="#11819B" d="M 468.50 592.59 C459.74,594.14 422.31,595.31 412.00,594.36 C384.87,591.86 349.36,585.43 307.89,575.49 C247.34,560.97 208.97,556.27 171.73,558.79 C157.15,559.77 137.33,562.41 128.72,564.52 C126.81,564.99 125.70,563.81 120.78,556.06 L 115.06 547.06 L 118.78 546.07 C130.93,542.85 180.81,531.45 199.50,527.62 C315.49,503.88 410.31,493.81 488.12,496.96 C515.04,498.05 538.72,499.81 540.69,500.87 C541.46,501.29 532.48,516.51 514.69,544.96 L 487.50 588.42 L 482.50 589.71 C479.75,590.42 473.45,591.71 468.50,592.59 Z"/>
    <path fill="#11819B" d="M 545.62 542.34 C532.90,554.41 519.01,567.69 514.75,571.87 C510.49,576.04 507.00,579.10 507.00,578.67 C507.00,577.95 535.10,534.53 556.29,502.50 C561.02,495.35 564.58,489.40 564.19,489.29 C561.19,488.35 525.97,485.84 502.94,484.91 C424.32,481.74 330.53,491.11 218.00,513.38 C189.80,518.97 134.95,531.11 125.25,533.92 C123.46,534.44 122.00,534.55 122.01,534.18 C122.02,533.00 175.63,514.42 201.50,506.62 C279.71,483.07 350.03,469.22 426.00,462.41 C449.87,460.27 514.10,459.42 539.53,460.91 C570.26,462.71 622.00,468.38 622.00,469.94 C622.00,470.31 610.01,481.81 595.37,495.50 C580.72,509.19 558.33,530.27 545.62,542.34 Z"/>
    <path fill="#11819B" d="M 387.84 610.99 C379.96,611.53 371.92,611.89 370.00,611.78 C368.08,611.68 362.90,611.46 358.50,611.30 C336.68,610.49 310.97,607.08 266.50,599.10 C212.16,589.35 190.61,586.81 161.50,586.72 C137.50,586.64 123.88,588.07 105.00,592.65 C94.31,595.24 78.59,600.68 71.65,604.19 C64.68,607.72 66.77,605.36 76.21,599.04 C95.28,586.27 117.01,577.42 141.23,572.55 C185.93,563.57 230.96,567.26 310.50,586.40 C351.88,596.36 386.77,602.34 416.44,604.55 C421.72,604.94 424.79,605.54 423.94,606.00 C421.43,607.39 402.71,609.98 387.84,610.99 Z"/>
    <path fill="#ffffff" d="M 347.50 447.90 C338.70,452.15 325.99,459.06 319.25,463.26 C312.51,467.45 307.00,470.71 307.00,470.50 C307.00,470.28 309.43,463.17 312.39,454.68 C330.59,402.57 341.18,354.33 345.06,305.79 C346.68,285.49 345.80,234.52 343.55,218.00 C341.00,199.28 335.58,173.01 331.50,159.50 C326.91,144.32 319.51,123.37 315.88,115.25 C314.34,111.81 313.34,109.00 313.65,109.00 C314.94,109.00 334.20,122.88 344.00,130.85 C357.91,142.18 386.24,170.53 398.61,185.50 C438.47,233.72 470.55,290.61 497.03,360.00 C506.20,384.04 518.90,422.44 517.81,422.85 C517.30,423.05 512.74,422.73 507.69,422.14 C480.83,419.01 448.58,419.91 421.00,424.57 C393.47,429.23 372.19,435.98 347.50,447.90 Z"/>
    <path fill="#ffffff" d="M 280.87 463.23 C278.47,469.69 276.27,474.94 276.00,474.92 C275.73,474.89 272.58,472.38 269.00,469.35 C253.18,455.92 229.57,442.16 205.75,432.50 L 194.00 427.73 L 203.34 417.61 C258.54,357.81 291.51,292.73 307.99,211.00 L 311.72 192.50 L 312.90 198.00 C317.90,221.17 320.28,245.98 320.24,274.50 C320.17,334.12 308.97,387.83 280.87,463.23 Z"/>
  </g>
</svg>
