<svg xmlns="http://www.w3.org/2000/svg" width="200" height="63" viewBox="0 0 200 63" fill="none"><path d="M86.8709 56.5824V34.9958C88.7392 34.6692 91.2631 34.5059 93.8853 34.5059C98.1464 34.5059 100.801 35.1917 102.998 36.694C105.423 38.3595 106.996 41.1027 106.996 45.1523C106.996 49.659 105.292 52.5655 103.129 54.2311C100.703 56.0925 97.0647 56.9416 92.7381 56.9416C89.9192 56.9416 87.9853 56.7457 86.8709 56.5824ZM92.7709 39.1433V52.3043C93.0659 52.3696 93.6231 52.3696 94.0164 52.3696C97.8514 52.4022 100.703 50.3122 100.703 45.3482C100.703 41.0374 98.1464 39.0127 94.5736 39.0127C93.6559 39.0127 93.0659 39.078 92.7709 39.1433Z" fill="white"></path><path d="M109.158 34.6692H115.091V56.6804H109.158V34.6692Z" fill="white"></path><path d="M137.304 43.6174V55.668C135.633 56.2232 132.551 56.909 129.667 56.909C125.34 56.909 122.39 55.8313 120.391 53.9371C118.326 51.9777 117.244 49.1365 117.244 45.9687C117.277 38.3268 123.013 34.4406 130.159 34.4406C133.141 34.4406 135.403 34.9631 136.55 35.5183L135.37 40.221C134.125 39.6985 132.617 39.3066 130.126 39.3066C126.488 39.3066 123.472 41.2007 123.472 45.6748C123.472 49.7896 126.127 52.1736 129.733 52.1736C130.552 52.1736 131.306 52.1083 131.601 51.9777V48.1894H128.651V43.6174H137.304Z" fill="white"></path><path d="M140.033 34.6692H145.966V56.6804H140.033V34.6692Z" fill="white"></path><path d="M153.331 56.6804V39.6331H147.693V34.6692H165V39.6331H159.264V56.6804H153.331Z" fill="white"></path><path d="M175.948 51.5858H170.244L168.999 56.6804H162.869L169.261 34.6692H177.16L183.749 56.6804H177.357L175.948 51.5858ZM171.031 47.2424H175.128L174.112 43.2908C173.784 42.0498 173.358 40.221 172.998 38.9473H172.932C172.604 40.221 172.276 42.0498 171.981 43.2908L171.031 47.2424Z" fill="white"></path><path d="M185.578 56.6804V34.6692H191.511V51.7491H200V56.6804H185.578Z" fill="white"></path><path d="M86.8709 31.2715V9.65223C88.2148 9.42362 91.132 9.19502 93.8525 9.19502C96.9992 9.19502 98.9003 9.42362 100.605 10.2727C102.342 11.0565 103.588 12.6567 103.588 14.8121C103.588 16.6409 102.571 18.4371 99.982 19.4168V19.4821C102.67 20.2333 104.309 22.2254 104.309 24.838C104.309 26.9281 103.293 28.561 101.818 29.6387C100.179 30.8796 97.4253 31.6308 92.7053 31.6308C90.0175 31.6308 88.0509 31.4675 86.8709 31.2715ZM92.7381 13.5711V17.8166H93.9181C96.442 17.8166 97.6547 16.9349 97.6547 15.5306C97.6547 14.2569 96.6714 13.4405 94.672 13.4405C93.6886 13.4405 93.1314 13.4732 92.7381 13.5711ZM92.7381 21.9968V27.2546C93.1642 27.32 93.6886 27.32 94.4425 27.32C96.4092 27.32 98.0809 26.5362 98.0809 24.5767C98.0809 22.7152 96.3764 21.9968 94.1475 21.9968H92.7381Z" fill="white"></path><path d="M106.533 9.35831H112.466V21.8662C112.466 25.1972 113.613 27.0587 115.94 27.0587C118.3 27.0587 119.447 25.3605 119.447 21.8662V9.35831H125.38V21.5069C125.38 28.2997 121.971 31.7287 115.776 31.7287C109.745 31.7287 106.533 28.4303 106.533 21.3763V9.35831ZM115.711 4.06779H121.709L117.776 8.18264H113.056L115.711 4.06779Z" fill="white"></path><path d="M127.093 31.3695V28.2344L136.861 14.3549V14.2243H128.011V9.35831H144.531V12.722L135.058 26.3729V26.5035H144.695V31.3695H127.093Z" fill="white"></path><path d="M146.723 9.35831H152.656V31.3695H146.723V9.35831Z" fill="white"></path><path d="M165.79 8.96642C172.903 8.96642 176.508 14.2243 176.508 20.1353C176.508 27.222 172.247 31.7287 165.429 31.7287C158.579 31.7287 154.809 26.6015 154.809 20.4945C154.809 14.061 159.005 8.96642 165.79 8.96642ZM165.659 13.6364C162.873 13.6364 161.07 16.3144 161.07 20.3639C161.07 24.5114 162.873 27.0587 165.724 27.0587C168.576 27.0587 170.248 24.2828 170.248 20.2986C170.248 16.5103 168.543 13.6364 165.659 13.6364Z" fill="white"></path><path d="M177.966 30.3571L179.08 25.4911C180.424 26.1769 182.587 26.8628 184.816 26.8628C186.848 26.8628 187.832 26.1769 187.832 25.0666C187.832 23.9889 186.848 23.3684 184.357 22.5193C180.621 21.213 178.13 19.1556 178.13 15.8898C178.13 12.0036 181.44 8.99908 187.012 8.99908C189.635 8.99908 191.536 9.48894 192.978 10.1421L191.732 14.8448C190.782 14.4202 189.143 13.7997 186.947 13.7997C185.144 13.7997 184.161 14.4529 184.161 15.4326C184.161 16.543 185.341 17.0002 188.127 18.0126C192.093 19.4822 193.863 21.6049 193.863 24.6747C193.863 28.463 190.913 31.6961 184.456 31.6961C181.801 31.6961 179.211 31.0103 177.966 30.3571Z" fill="white"></path><path fill-rule="evenodd" clip-rule="evenodd" d="M16.7135 0.153991C7.28463 1.93909 2.20576 6.94904 2.17929 14.4919C2.17287 16.3589 2.4239 18.2129 2.86132 19.531C3.76942 22.2667 6.99995 25.922 9.74656 27.3216C10.8755 27.8969 11.7987 28.4183 11.7987 28.4809C11.7987 28.5435 10.66 29.1496 9.26832 29.8281C4.57885 32.1137 1.8311 35.1929 0.625462 39.5137C-1.15936 45.9082 0.964585 53.0683 5.86274 57.1702C6.87973 58.0216 7.44379 58.2618 7.79653 57.9928C13.3695 53.7409 17.9902 51.6762 25.976 49.8683C29.3944 49.0945 31.0238 49.0035 42.9887 48.9177C55.673 48.8271 56.3895 48.7818 60.2926 47.8221C66.8565 46.2087 70.4363 43.7435 71.479 40.1197C72.0159 38.2531 72.0347 34.0733 71.5149 32.1244C71.2998 31.3179 70.5354 29.5729 69.8159 28.247C67.8258 24.5795 68.0254 24.4405 71.8707 26.8175C76.3723 29.5997 79.5083 33.5921 80.0708 37.2564C80.2103 38.1645 80.4958 38.9076 80.7056 38.9076C80.9479 38.9076 81.0194 37.5785 80.9018 35.2649C80.7468 32.2079 80.5298 31.2368 79.5525 29.2248C78.0663 26.1646 74.9099 23.1158 72.0038 21.9336C65.0334 19.0978 56.3044 22.8586 53.7158 29.8124C53.2243 31.1328 52.6697 32.213 52.4837 32.213C51.9374 32.213 52.4992 28.2639 53.3861 25.8716C54.5233 22.8039 57.1365 19.4763 59.5281 18.0511C62.494 16.2837 66.5771 15.4406 69.5804 15.9754C74.592 16.8677 78.6263 19.9677 80.6228 24.461C81.8855 27.3023 82.0398 26.6033 81.1453 22.0923C80.2954 17.8073 79.292 15.2606 77.1201 11.8779C73.922 6.89784 69.1037 3.36466 63.0259 1.54293C58.2658 0.116186 54.2338 -0.21067 45.4461 0.116579C36.0857 0.465487 36.5016 0.464307 25.7869 0.185889C21.3164 0.0701116 17.2333 0.0555405 16.7135 0.153991ZM17.2651 9.52647C21.0529 15.055 22.3579 19.0328 22.6539 25.9504C22.9091 31.9101 22.4339 35.7277 20.6336 42.1817C19.913 44.7638 19.4087 46.966 19.513 47.0747C19.6174 47.183 20.119 47.1633 20.6279 47.0302C21.7715 46.7313 22.1243 45.744 23.3904 39.3014C25.5839 28.1371 24.6883 19.7811 20.5621 12.9167C18.7743 9.94232 17.1641 7.86541 16.2522 7.35702C15.7381 7.07033 16.0704 7.78272 17.2651 9.52647ZM20.3001 9.61547C27.5298 17.0268 29.0651 26.6639 24.9635 38.8895C24.3424 40.7404 23.7371 42.5904 23.618 43.0004C23.4656 43.5261 24.3953 43.0323 26.7684 41.3271C29.4545 39.3971 30.631 38.8056 32.592 38.4C35.0067 37.901 35.0517 37.8684 35.1814 36.5294C35.4789 33.4503 33.2967 24.726 31.1724 20.5009C29.3864 16.9496 26.9056 13.7752 23.7378 10.989C22.0577 9.5115 20.3115 8.10012 19.8574 7.85281C18.0813 6.88642 18.2352 7.49839 20.3001 9.61547ZM22.1144 8.30371C28.5173 13.6035 30.4726 15.8576 32.6748 20.4769C34.6147 24.5468 35.6048 27.9261 36.0554 32.0161C36.6585 37.4872 36.5632 37.2509 38.3612 37.7416C39.2429 37.9818 40.5986 38.6087 41.374 39.134C43.208 40.3765 43.6261 40.3493 43.338 39.0061C41.3993 29.9628 37.5136 21.4567 32.9981 16.3707C29.7169 12.6749 22.9666 7.38025 21.5837 7.41766C21.2899 7.42554 21.522 7.81343 22.1144 8.30371ZM49.1727 21.6642C48.2574 22.5928 47.1825 24.0613 46.7848 24.9277C45.8994 26.8549 45.535 30.7988 46.2026 31.2289C46.8502 31.6459 47.1428 30.9973 47.6748 27.9631C48.0052 26.0799 48.5806 24.6114 49.6793 22.8484C50.5269 21.4882 51.1344 20.2855 51.0289 20.1757C50.9235 20.0658 50.0879 20.7356 49.1727 21.6642ZM59.4344 26.3323C58.0843 26.9215 56.4586 28.627 55.6114 30.3424C54.7256 32.1362 55.1286 32.2398 56.6227 30.6027C58.1962 28.8787 59.4979 28.275 61.6411 28.275C63.1242 28.275 63.8788 28.538 65.3143 29.5548C67.5343 31.1277 68.5041 32.9423 68.5199 35.554C68.5309 37.3765 68.5747 37.4702 69.087 36.7649C69.9274 35.6072 69.7974 32.0082 68.8401 29.9486C67.6931 27.4807 65.6391 26.1701 62.6982 26.0303C61.423 25.9697 59.9542 26.1055 59.4344 26.3323ZM33.7451 43.4832C31.9879 43.79 29.3509 44.4063 27.8852 44.8532C23.6675 46.139 12.8913 51.9031 14.7045 51.9031C14.898 51.9031 16.4847 51.36 18.2303 50.6965C24.0017 48.5026 26.951 47.9485 34.2317 47.6902L40.9748 47.4507L43.0216 45.5026C44.1471 44.4311 45.068 43.3946 45.068 43.2C45.068 42.6605 37.3541 42.8535 33.7451 43.4832ZM19.2949 54.855C14.9075 55.6241 8.77419 57.994 8.77419 58.9202C8.77419 59.3932 12.0206 60.5013 15.3903 61.1787C19.2423 61.9525 27.7268 62.3479 31.6469 61.9359L34.6714 61.6178L29.0004 60.8971C19.8495 59.7342 16.3441 59.4062 12.9431 59.3955C10.0596 59.3865 9.81688 59.3294 10.5102 58.8233C11.5613 58.0566 15.4833 56.8102 19.3599 56.0116C23.6762 55.1216 35.0283 55.4339 41.0984 56.609C43.3857 57.0516 47.1137 57.6797 49.3832 58.0046C51.6524 58.3295 53.5926 58.6824 53.6946 58.7887C54.0549 59.1636 50.5193 60.5187 48.0925 60.9357C41.3112 62.1013 41.3063 62.1147 47.7145 61.9509C55.5842 61.7497 60.2918 60.8892 65.1752 58.7591C67.5608 57.7187 70.7762 55.7887 70.7762 55.3977C70.7762 55.2586 69.7634 55.5713 68.5256 56.0919C63.8592 58.0554 54.45 58.1047 44.1229 56.2199C33.254 54.2359 25.3151 53.7996 19.2949 54.855Z" fill="white"></path></svg>